<svg xmlns="http://www.w3.org/2000/svg" width="39" height="20" viewBox="0 0 39 20" fill="none">
  <path d="M3.28821 0.537466C3.10215 0.365782 2.88328 0.231564 2.6441 0.142475C2.40492 0.0533848 2.15011 0.0111675 1.89422 0.0182362C1.63833 0.0253048 1.38637 0.0815201 1.15273 0.18367C0.919093 0.28582 0.708345 0.431906 0.532523 0.613585C0.356701 0.795265 0.219248 1.00898 0.128011 1.24254C0.0367743 1.47609 -0.00645918 1.7249 0.000779546 1.97476C0.00801827 2.22463 0.0655871 2.47066 0.170199 2.6988C0.274811 2.92694 0.424418 3.13273 0.610477 3.30441L18.1502 19.4798C18.512 19.8139 18.9911 20 19.489 20C19.987 20 20.4661 19.8139 20.8279 19.4798L38.3696 3.30441C38.5597 3.13386 38.7132 2.92812 38.8213 2.69914C38.9293 2.47016 38.9896 2.22251 38.9988 1.97056C39.0079 1.71861 38.9657 1.4674 38.8746 1.23151C38.7835 0.995625 38.6454 0.779762 38.4681 0.596464C38.2908 0.413168 38.0781 0.266088 37.8421 0.163773C37.6061 0.0614548 37.3517 0.00593948 37.0936 0.000452042C36.8355 -0.00503731 36.5788 0.039608 36.3385 0.131796C36.0982 0.223984 35.8791 0.361877 35.6938 0.537466L19.489 15.4797L3.28821 0.537466Z" fill="url(#paint0_linear_26_189)"/>
  <defs>
    <linearGradient id="paint0_linear_26_189" x1="0" y1="10" x2="39" y2="10" gradientUnits="userSpaceOnUse">
      <stop stop-color="#956BFF"/>
      <stop offset="1" stop-color="#74E6FF"/>
    </linearGradient>
  </defs>
</svg>