<svg xmlns="http://www.w3.org/2000/svg" width="37" height="30" viewBox="0 0 37 30" fill="none">
  <path d="M32.8555 0H3.65062C1.64278 0 0.0182531 1.6875 0.0182531 3.75L0 26.25C0 28.3125 1.64278 30 3.65062 30H32.8555C34.8634 30 36.5062 28.3125 36.5062 26.25V3.75C36.5062 1.6875 34.8634 0 32.8555 0ZM32.1254 7.96875L19.2205 16.2563C18.6364 16.6313 17.8698 16.6313 17.2857 16.2563L4.38074 7.96875C4.19771 7.86321 4.03743 7.72061 3.90961 7.5496C3.78178 7.37859 3.68906 7.18271 3.63706 6.97382C3.58507 6.76493 3.57487 6.54738 3.60709 6.33433C3.63932 6.12127 3.71329 5.91715 3.82453 5.73431C3.93578 5.55148 4.08198 5.39373 4.25429 5.27062C4.42661 5.1475 4.62145 5.06158 4.82702 5.01806C5.03259 4.97454 5.24463 4.97431 5.45029 5.0174C5.65595 5.06049 5.85096 5.146 6.02352 5.26875L18.2531 13.125L30.4826 5.26875C30.6552 5.146 30.8502 5.06049 31.0559 5.0174C31.2615 4.97431 31.4736 4.97454 31.6791 5.01806C31.8847 5.06158 32.0796 5.1475 32.2519 5.27062C32.4242 5.39373 32.5704 5.55148 32.6816 5.73431C32.7929 5.91715 32.8668 6.12127 32.8991 6.33433C32.9313 6.54738 32.9211 6.76493 32.8691 6.97382C32.8171 7.18271 32.7244 7.37859 32.5966 7.5496C32.4687 7.72061 32.3085 7.86321 32.1254 7.96875Z" fill="url(#paint0_linear_26_214)"/>
  <defs>
    <linearGradient id="paint0_linear_26_214" x1="18.2531" y1="0" x2="18.2531" y2="30" gradientUnits="userSpaceOnUse">
      <stop stop-color="#956BFF"/>
      <stop offset="0.9999" stop-color="#74E6FF"/>
      <stop offset="1" stop-opacity="0"/>
    </linearGradient>
  </defs>
</svg>