<svg xmlns="http://www.w3.org/2000/svg" width="33" height="34" viewBox="0 0 33 34" fill="none">
  <path d="M16.5 0C14.3332 0 12.1876 0.438404 10.1857 1.29018C8.18385 2.14196 6.3649 3.39043 4.83274 4.9643C1.73839 8.14289 0 12.454 0 16.9492C0 24.4407 4.7355 30.7967 11.286 33.0509C12.111 33.1865 12.375 32.6611 12.375 32.2035V29.3391C7.8045 30.356 6.831 27.0679 6.831 27.0679C6.072 25.1018 4.9995 24.5763 4.9995 24.5763C3.498 23.5255 5.115 23.5594 5.115 23.5594C6.765 23.678 7.6395 25.3051 7.6395 25.3051C9.075 27.8814 11.5005 27.1187 12.441 26.7119C12.5895 25.6102 13.0185 24.8645 13.4805 24.4407C9.8175 24.017 5.973 22.5594 5.973 16.1017C5.973 14.2204 6.6 12.7119 7.6725 11.5085C7.5075 11.0848 6.93 9.32206 7.8375 7.03392C7.8375 7.03392 9.2235 6.57629 12.375 8.76273C13.6785 8.38985 15.0975 8.20341 16.5 8.20341C17.9025 8.20341 19.3215 8.38985 20.625 8.76273C23.7765 6.57629 25.1625 7.03392 25.1625 7.03392C26.07 9.32206 25.4925 11.0848 25.3275 11.5085C26.4 12.7119 27.027 14.2204 27.027 16.1017C27.027 22.5763 23.166 24.0001 19.4865 24.4238C20.0805 24.9492 20.625 25.9831 20.625 27.5594V32.2035C20.625 32.6611 20.889 33.2035 21.7305 33.0509C28.281 30.7797 33 24.4407 33 16.9492C33 14.7234 32.5732 12.5194 31.744 10.463C30.9148 8.40665 29.6994 6.53818 28.1673 4.9643C26.6351 3.39043 24.8162 2.14196 22.8143 1.29018C20.8124 0.438404 18.6668 0 16.5 0Z" fill="url(#paint0_linear_26_213)"/>
  <defs>
    <linearGradient id="paint0_linear_26_213" x1="16.5" y1="0" x2="16.5" y2="33.0772" gradientUnits="userSpaceOnUse">
      <stop stop-color="#956BFF"/>
      <stop offset="1" stop-color="#74E6FF"/>
    </linearGradient>
  </defs>
</svg>