<svg width="50" height="50" viewBox="0 0 50 50" fill="none" xmlns="http://www.w3.org/2000/svg">
<path d="M40.625 26.1917L39.5083 27.2958M23.0291 39.7125L9.37497 26.1938C8.34563 25.1906 7.53503 23.9853 6.99417 22.6536C6.45331 21.322 6.19389 19.8928 6.23222 18.456C6.27056 17.0192 6.60582 15.6059 7.21692 14.3049C7.82802 13.004 8.70173 11.8436 9.7831 10.8968C10.8645 9.94996 12.1301 9.23715 13.5003 8.80321C14.8705 8.36928 16.3158 8.22361 17.745 8.37537C19.1743 8.52713 20.5567 8.97303 21.8053 9.68503C23.0538 10.397 24.1415 11.3597 25 12.5125C25.8615 11.3667 26.9503 10.4111 28.1981 9.70544C29.4459 8.99978 30.826 8.55928 32.2519 8.41151C33.6778 8.26374 35.1189 8.41188 36.4849 8.84666C37.8509 9.28144 39.1125 9.9935 40.1907 10.9383C41.2689 11.883 42.1404 13.0402 42.7508 14.3373C43.3612 15.6344 43.6973 17.0435 43.7381 18.4765C43.7789 19.9095 43.5234 21.3354 42.9877 22.6651C42.4521 23.9948 41.6477 25.1996 40.625 26.2042M41.6666 43.75L45.8333 39.5833L41.6666 35.4167M35.4166 35.4167L31.25 39.5833L35.4166 43.75" stroke="url(#paint0_linear_29_215)" stroke-width="4.16667" stroke-linecap="round" stroke-linejoin="round"/>
<defs>
<linearGradient id="paint0_linear_29_215" x1="26.0309" y1="8.31714" x2="26.0309" y2="43.75" gradientUnits="userSpaceOnUse">
<stop stop-color="#956BFF"/>
<stop offset="1" stop-color="#74E6FF"/>
</linearGradient>
</defs>
</svg>
