<svg xmlns="http://www.w3.org/2000/svg" width="30" height="31" viewBox="0 0 30 31" fill="none">
  <path d="M26.6667 0C27.5507 0 28.3986 0.36075 29.0237 1.00289C29.6488 1.64503 30 2.51596 30 3.42408V27.3926C30 28.3008 29.6488 29.1717 29.0237 29.8138C28.3986 30.456 27.5507 30.8167 26.6667 30.8167H3.33333C2.44928 30.8167 1.60143 30.456 0.976311 29.8138C0.351189 29.1717 0 28.3008 0 27.3926V3.42408C0 2.51596 0.351189 1.64503 0.976311 1.00289C1.60143 0.36075 2.44928 0 3.33333 0H26.6667ZM25.8333 26.5366V17.4628C25.8333 15.9826 25.2609 14.563 24.2419 13.5163C23.223 12.4696 21.841 11.8816 20.4 11.8816C18.9833 11.8816 17.3333 12.7718 16.5333 14.1072V12.2068H11.8833V26.5366H16.5333V18.0963C16.5333 16.778 17.5667 15.6994 18.85 15.6994C19.4688 15.6994 20.0623 15.9519 20.4999 16.4014C20.9375 16.8509 21.1833 17.4606 21.1833 18.0963V26.5366H25.8333ZM6.46667 9.51894C7.20927 9.51894 7.92146 9.21591 8.44657 8.67651C8.97167 8.13712 9.26667 7.40554 9.26667 6.64271C9.26667 5.05052 8.01667 3.74937 6.46667 3.74937C5.71964 3.74937 5.00321 4.0542 4.47498 4.59681C3.94675 5.13942 3.65 5.87535 3.65 6.64271C3.65 8.23491 4.91667 9.51894 6.46667 9.51894ZM8.78333 26.5366V12.2068H4.16667V26.5366H8.78333Z" fill="url(#paint0_linear_26_211)"/>
  <defs>
    <linearGradient id="paint0_linear_26_211" x1="15" y1="0" x2="15" y2="30.8167" gradientUnits="userSpaceOnUse">
      <stop stop-color="#956BFF"/>
      <stop offset="1" stop-color="#74E6FF"/>
    </linearGradient>
  </defs>
</svg>