<svg xmlns="http://www.w3.org/2000/svg" width="40" height="40" viewBox="0 0 40 40" fill="none">
  <path d="M32.5765 29.9234C32.9287 30.2757 33.1266 30.7534 33.1266 31.2516C33.1266 31.7497 32.9287 32.2274 32.5765 32.5797C32.2243 32.9319 31.7465 33.1298 31.2484 33.1298C30.7502 33.1298 30.2725 32.9319 29.9202 32.5797L19.9999 22.6562L10.0765 32.5766C9.72425 32.9288 9.24651 33.1267 8.74837 33.1267C8.25023 33.1267 7.77249 32.9288 7.42024 32.5766C7.068 32.2243 6.87012 31.7466 6.87012 31.2484C6.87012 30.7503 7.068 30.2726 7.42024 29.9203L17.3437 20L7.42337 10.0766C7.07113 9.72432 6.87324 9.24658 6.87324 8.74844C6.87324 8.25029 7.07113 7.77255 7.42337 7.42031C7.77561 7.06807 8.25335 6.87018 8.75149 6.87018C9.24964 6.87018 9.72738 7.06807 10.0796 7.42031L19.9999 17.3438L29.9234 7.41875C30.2756 7.06651 30.7533 6.86862 31.2515 6.86862C31.7496 6.86862 32.2274 7.06651 32.5796 7.41875C32.9319 7.77099 33.1297 8.24873 33.1297 8.74687C33.1297 9.24502 32.9319 9.72276 32.5796 10.075L22.6562 20L32.5765 29.9234Z" fill="#353636"/>
</svg>